<svg width="52" height="49" viewBox="0 0 52 49" fill="none" xmlns="http://www.w3.org/2000/svg">
<g id="Group 15">
<rect id="Rectangle 7" y="0.622559" width="52" height="48.1154" rx="9" fill="#D6ECED"/>
<g id="&#240;&#159;&#166;&#134; icon &#34;Facebook&#34;">
<path id="Vector" d="M38.146 24.7534C38.146 18.068 32.7424 12.6514 26.073 12.6514C19.4037 12.6514 14 18.068 14 24.7534C14 30.7937 18.4149 35.8004 24.1866 36.7091V28.2518H21.1197V24.7534H24.1866V22.0871C24.1866 19.0542 25.9878 17.379 28.7466 17.379C30.0678 17.379 31.4494 17.6152 31.4494 17.6152V20.5919H29.9267C28.4273 20.5919 27.9594 21.5249 27.9594 22.4818V24.7534H31.3077L30.7723 28.2518H27.9594V36.7091C33.7311 35.8004 38.146 30.7937 38.146 24.7534Z" fill="#1B4B5E"/>
</g>
</g>
</svg>
