<svg width="52" height="49" viewBox="0 0 52 49" fill="none" xmlns="http://www.w3.org/2000/svg">
<g id="Group 16">
<rect id="Rectangle 6" y="0.622559" width="52" height="48.1154" rx="9" fill="#D6ECED"/>
<g id="&#240;&#159;&#166;&#134; icon &#34;google&#34;">
<path id="Vector" d="M26 22.9611V27.086H32.806C32.531 28.8552 30.75 32.2724 26 32.2724C21.905 32.2724 18.561 28.8753 18.561 24.6802C18.561 20.4852 21.906 17.088 26 17.088C28.33 17.088 29.891 18.0794 30.785 18.9415L34.039 15.7959C31.949 13.8402 29.239 12.6514 26 12.6514C19.365 12.6514 14 18.0293 14 24.6802C14 31.3312 19.365 36.7091 26 36.7091C32.926 36.7091 37.52 31.8284 37.52 24.9549C37.52 24.165 37.435 23.5615 37.331 22.9611H26Z" fill="#1B4B5E"/>
</g>
</g>
</svg>
