<svg width="52" height="49" viewBox="0 0 52 49" fill="none" xmlns="http://www.w3.org/2000/svg">
<g id="Group 14">
<rect id="Rectangle 8" y="0.622559" width="52" height="48.1154" rx="9" fill="#D6ECED"/>
<g id="&#240;&#159;&#166;&#134; icon &#34;apple&#34;">
<path id="Vector" d="M20.206 36.0805C19.6969 35.7387 19.242 35.3208 18.8679 34.8364C18.451 34.3383 18.0728 33.811 17.7189 33.2668C16.894 32.0559 16.25 30.7357 15.7999 29.3393C15.261 27.7194 15 26.1668 15 24.6481C15 22.9521 15.366 21.4715 16.0819 20.2275C16.6079 19.2571 17.3949 18.4431 18.3419 17.8737C19.259 17.3003 20.3239 16.9877 21.401 16.9666C21.78 16.9666 22.188 17.0217 22.6211 17.127C22.9322 17.2153 23.3111 17.3546 23.7741 17.5279C24.3631 17.7555 24.6871 17.8948 24.797 17.9288C25.1421 18.0552 25.4321 18.1103 25.66 18.1103C25.8329 18.1103 26.0769 18.0552 26.3541 17.9709C26.51 17.9159 26.8041 17.8187 27.2251 17.6381C27.642 17.4858 27.9701 17.3554 28.231 17.2582C28.631 17.1399 29.018 17.0306 29.3631 16.9755C29.784 16.9123 30.2002 16.8913 30.6001 16.9245C31.3661 16.9755 32.065 17.1399 32.692 17.3756C33.7901 17.8187 34.6781 18.5104 35.3391 19.4936C35.0571 19.667 34.8001 19.8646 34.5561 20.0881C34.0301 20.5522 33.5881 21.1006 33.2302 21.7121C32.7672 22.5431 32.5312 23.4842 32.5361 24.4327C32.5531 25.6014 32.852 26.6309 33.4411 27.521C33.862 28.1706 34.4171 28.723 35.095 29.179C35.432 29.4066 35.722 29.5629 36 29.6682C35.8699 30.0731 35.7309 30.4652 35.5669 30.8539C35.192 31.7271 34.746 32.5621 34.22 33.351C33.7529 34.0305 33.3869 34.5368 33.109 34.8737C32.6759 35.388 32.2589 35.7808 31.838 36.0546C31.375 36.3624 30.828 36.5268 30.2721 36.5268C29.8931 36.5438 29.519 36.4928 29.157 36.3915C28.8459 36.2862 28.5381 36.172 28.2351 36.0416C27.9192 35.8983 27.5952 35.7719 27.2631 35.6747C26.851 35.5654 26.43 35.5144 26.009 35.5144C25.576 35.5144 25.155 35.5694 24.7591 35.6707C24.4221 35.7679 24.0981 35.8813 23.7781 36.0206C23.3281 36.2101 23.0291 36.3373 22.8562 36.3915C22.5112 36.4928 22.1533 36.556 21.7913 36.577C21.2313 36.577 20.7093 36.4166 20.1922 36.0919L20.206 36.0805ZM27.5911 16.1437C26.8591 16.5106 26.1601 16.6669 25.4661 16.6159C25.357 15.9153 25.4661 15.1985 25.7561 14.4137C26.0131 13.743 26.3581 13.1396 26.8332 12.5994C27.3253 12.0381 27.9192 11.574 28.5882 11.2411C29.2992 10.8742 29.9771 10.6758 30.6252 10.6466C30.7092 11.3804 30.6252 12.1021 30.3561 12.8821C30.108 13.5737 29.742 14.2112 29.279 14.7806C28.808 15.3419 28.227 15.806 27.5701 16.1429L27.5911 16.1437Z" fill="#1B4B5E"/>
</g>
</g>
</svg>
